HIERARCHY
ROOT Hips
{
	OFFSET 53.740200 -9.385695 93.686096
	CHANNELS 6 Xposition Yposition Zposition Xrotation Yrotation Zrotation
	JOINT spine
	{
		OFFSET 0.000000 -0.429886 7.475601
		CHANNELS 3 Xrotation Yrotation Zrotation
		JOINT spine1
		{
			OFFSET 0.000000 -0.000002 9.923012
			CHANNELS 3 Xrotation Yrotation Zrotation
			JOINT spine2
			{
				OFFSET 0.000000 -0.000002 9.508041
				CHANNELS 3 Xrotation Yrotation Zrotation
				JOINT Neck
				{
					OFFSET 0.000000 -1.163844 24.411095
					CHANNELS 3 Xrotation Yrotation Zrotation
					JOINT Head
					{
						OFFSET 0.000000 -0.000001 7.375229
						CHANNELS 3 Xrotation Yrotation Zrotation
						End Site
						{
							OFFSET 0.000000 5.887407 17.852203
						}
					}
				}
				JOINT RightShoulder
				{
					OFFSET -4.003559 0.557467 10.267906
					CHANNELS 3 Xrotation Yrotation Zrotation
					JOINT RightArm
					{
						OFFSET 0.000000 -0.000003 13.467300
						CHANNELS 3 Xrotation Yrotation Zrotation
						JOINT RightArmRoll
						{
							OFFSET 0.000000 -0.000001 6.798584
							CHANNELS 3 Xrotation Yrotation Zrotation
							JOINT RightForeArm
							{
								OFFSET 0.000000 -0.000003 19.801804
								CHANNELS 3 Xrotation Yrotation Zrotation
								JOINT RightForeArmRoll
								{
									OFFSET 0.000000 -0.000002 7.629059
									CHANNELS 3 Xrotation Yrotation Zrotation
									JOINT RightHand
									{
										OFFSET 0.000000 -0.000002 15.309799
										CHANNELS 3 Xrotation Yrotation Zrotation
										End Site
										{
											OFFSET 0.000000 0.000000 0.100006
										}
									}
								}
							}
						}
					}
				}
				JOINT LeftShoulder
				{
					OFFSET 4.003559 0.557467 10.267906
					CHANNELS 3 Xrotation Yrotation Zrotation
					JOINT LeftArm
					{
						OFFSET 0.000000 -0.000003 13.467300
						CHANNELS 3 Xrotation Yrotation Zrotation
						JOINT LeftArmRoll
						{
							OFFSET 0.000000 -0.000001 6.798584
							CHANNELS 3 Xrotation Yrotation Zrotation
							JOINT LeftForeArm
							{
								OFFSET 0.000000 -0.000003 19.801804
								CHANNELS 3 Xrotation Yrotation Zrotation
								JOINT LeftForeArmRoll
								{
									OFFSET 0.000000 -0.000002 7.629059
									CHANNELS 3 Xrotation Yrotation Zrotation
									JOINT LeftHand
									{
										OFFSET 0.000000 -0.000002 15.309799
										CHANNELS 3 Xrotation Yrotation Zrotation
										End Site
										{
											OFFSET 0.000000 0.000000 0.100006
										}
									}
								}
							}
						}
					}
				}
			}
		}
	}
	JOINT RightUpLeg
	{
		OFFSET -6.626091 1.019270 -1.215050
		CHANNELS 3 Xrotation Yrotation Zrotation
		JOINT RightUpLegRoll
		{
			OFFSET 0.000000 -0.000003 17.951698
			CHANNELS 3 Xrotation Yrotation Zrotation
			JOINT RightLeg
			{
				OFFSET 0.000000 0.000004 -22.230400
				CHANNELS 3 Xrotation Yrotation Zrotation
				JOINT RightLegRoll
				{
					OFFSET 0.000000 -0.000004 22.303200
					CHANNELS 3 Xrotation Yrotation Zrotation
					JOINT RightFoot
					{
						OFFSET 0.000000 -0.000003 18.563599
						CHANNELS 3 Xrotation Yrotation Zrotation
						JOINT RightToeBase
						{
							OFFSET 0.000000 -0.000003 15.518295
							CHANNELS 3 Xrotation Yrotation Zrotation
							End Site
							{
								OFFSET 0.006577 0.866262 7.515381
							}
						}
					}
				}
			}
		}
	}
	JOINT LeftUpLeg
	{
		OFFSET 6.626091 1.019270 -1.215050
		CHANNELS 3 Xrotation Yrotation Zrotation
		JOINT LeftUpLegRoll
		{
			OFFSET 0.000000 -0.000003 17.951797
			CHANNELS 3 Xrotation Yrotation Zrotation
			JOINT LeftLeg
			{
				OFFSET 0.000000 -0.000004 22.230293
				CHANNELS 3 Xrotation Yrotation Zrotation
				JOINT LeftLegRoll
				{
					OFFSET 0.000000 -0.000004 22.509308
					CHANNELS 3 Xrotation Yrotation Zrotation
					JOINT LeftFoot
					{
						OFFSET 0.000000 -0.000003 18.357498
						CHANNELS 3 Xrotation Yrotation Zrotation
						JOINT LeftToeBase
						{
							OFFSET 0.000000 -0.000002 15.518295
							CHANNELS 3 Xrotation Yrotation Zrotation
							End Site
							{
								OFFSET -0.029476 0.866261 7.515396
							}
						}
					}
				}
			}
		}
	}
}
MOTION
Frames: 9
Frame Time: 0.041667
52.024899 -10.472717 93.594498 -2.283688 1.839649 -0.598436 -2.143148 0.385043 -0.028566 -0.283347 0.773552 -0.046875 1.361783 0.772698 -0.056154 11.616443 -17.730835 -2.255136 -1.964554 -0.864098 -1.224468 -16.176813 -20.780960 -18.216516 -148.594194 -182.131297 -96.761022 0.000000 0.000002 -0.000006 60.889224 -3.175763 1.411267 0.000007 0.000011 -3.011611 -5.000222 -7.998944 0.000135 8.029722 74.507201 -6.833722 -66.519253 106.811639 51.616867 -0.000002 -0.000000 0.000001 1.631009 9.127294 0.529552 -0.000001 -0.000017 3.001821 -5.000221 7.999648 -0.000061 2.168022 176.420549 -2.554288 179.999991 -0.000005 -0.991999 175.188724 -2.731361 -0.385819 -0.000004 -0.000001 0.038772 69.028822 6.841393 2.258851 25.456969 -7.355616 -0.000000 0.304074 176.975037 2.075414 -0.000005 -0.000004 -1.065030 -7.681704 1.890127 0.344955 0.000000 -0.000003 -0.131580 70.310063 -6.833185 -2.193186 25.456856 7.355620 0.000003 
52.029900 -10.472818 93.594398 -2.272129 1.845439 -0.591698 -2.145717 0.383229 -0.026965 -0.288508 0.769657 -0.043779 1.356622 0.768828 -0.053010 11.579000 -17.710049 -2.274003 -1.937527 -0.877364 -1.237441 -16.197698 -20.777301 -18.248286 -148.600888 -182.060058 -96.737861 -0.000003 -0.000000 -0.000004 60.585048 -3.143443 1.372559 0.000002 0.000011 -3.011603 -5.000226 -7.998941 0.000132 8.027033 74.502358 -6.831589 -66.476763 106.801844 51.582033 -0.000002 0.000000 0.000001 1.640858 9.134937 0.528307 -0.000002 -0.000017 3.001812 -5.000221 7.999649 -0.000061 2.165337 176.416560 -2.558241 179.999991 -0.000005 -0.991998 175.202371 -2.731417 -0.385168 -0.000004 -0.000000 0.038785 69.024608 6.841437 2.258720 25.456971 -7.355616 -0.000001 0.291462 176.971035 2.075550 -0.000005 -0.000004 -1.065080 -7.684339 1.889015 0.344699 0.000000 -0.000003 -0.131560 70.312180 -6.833197 -2.192757 25.456860 7.355620 0.000003 
52.043800 -10.484716 93.594398 -2.260279 1.851469 -0.585004 -2.148388 0.381396 -0.025401 -0.293863 0.765702 -0.040744 1.351271 0.764901 -0.049925 11.542512 -17.689196 -2.292685 -1.910760 -0.891038 -1.250356 -16.218551 -20.774317 -18.280119 -148.606939 -181.988109 -96.711695 0.000000 0.000002 -0.000005 60.278031 -3.110473 1.333797 -0.000002 0.000011 -3.011582 -5.000219 -7.998940 0.000135 8.024302 74.497215 -6.829452 -66.432722 106.791811 51.544531 -0.000002 0.000000 0.000002 1.649740 9.141753 0.527163 -0.000000 -0.000017 3.001791 -5.000218 7.999647 -0.000061 2.162542 176.412557 -2.562287 179.999991 -0.000005 -0.991998 175.216386 -2.731472 -0.384501 -0.000005 0.000000 0.038798 69.020400 6.841441 2.258681 25.456969 -7.355616 -0.000000 0.278482 176.967032 2.075296 -0.000005 -0.000004 -1.065130 -7.687168 1.888220 0.344479 -0.000000 -0.000003 -0.131544 70.314318 -6.833238 -2.192233 25.456856 7.355622 0.000003 
52.046501 -10.483915 93.593391 -2.248284 1.857660 -0.578408 -2.151156 0.379582 -0.023908 -0.299399 0.761765 -0.037827 1.345729 0.761000 -0.046959 11.507737 -17.668627 -2.310914 -1.884474 -0.904603 -1.263072 -16.239181 -20.772234 -18.311613 -148.612554 -181.915409 -96.682721 -0.000002 0.000000 -0.000005 59.968672 -3.076803 1.294927 0.000001 0.000011 -3.011561 -5.000218 -7.998941 0.000135 8.021600 74.491969 -6.827356 -66.389125 106.781402 51.506433 -0.000003 -0.000000 0.000002 1.657581 9.147766 0.526132 -0.000000 -0.000018 3.001780 -5.000220 7.999652 -0.000061 2.159688 176.407558 -2.566407 179.999991 -0.000005 -0.991998 175.230607 -2.730522 -0.383739 -0.000005 -0.000000 0.038810 69.016084 6.841476 2.258753 25.456969 -7.355616 -0.000001 0.265329 176.962032 2.074738 -0.000005 -0.000004 -1.065180 -7.690046 1.887672 0.344292 0.000001 -0.000003 -0.131532 70.316558 -6.833249 -2.191799 25.456860 7.355622 0.000003 
52.053600 -10.478114 93.593407 -2.236264 1.863920 -0.571968 -2.153995 0.377827 -0.022518 -0.305096 0.757927 -0.035090 1.340037 0.757204 -0.044174 11.475137 -17.649096 -2.328431 -1.858910 -0.917533 -1.275478 -16.259185 -20.771270 -18.342065 -148.617731 -181.841902 -96.650981 -0.000001 0.000001 -0.000006 59.657188 -3.042432 1.255978 -0.000001 0.000012 -3.011541 -5.000223 -7.998940 0.000134 8.018900 74.486717 -6.825253 -66.346989 106.770576 51.468491 -0.000003 -0.000000 0.000002 1.664266 9.153014 0.525221 -0.000001 -0.000019 3.001770 -5.000220 7.999648 -0.000061 2.156822 176.403542 -2.570448 179.999991 -0.000005 -0.991998 175.244841 -2.730578 -0.383061 -0.000004 -0.000001 0.038823 69.011883 6.841515 2.258620 25.456967 -7.355615 -0.000001 0.252202 176.958030 2.074007 -0.000005 -0.000004 -1.065230 -7.692848 1.887312 0.344135 -0.000000 -0.000003 -0.131526 70.318799 -6.833294 -2.191268 25.456854 7.355620 0.000002 
52.063000 -10.482816 93.586891 -2.224372 1.870161 -0.565742 -2.156914 0.376168 -0.021266 -0.310937 0.754265 -0.032593 1.334195 0.753592 -0.041631 11.444947 -17.630894 -2.345173 -1.834271 -0.929306 -1.287450 -16.278033 -20.771582 -18.371028 -148.622662 -181.767603 -96.616796 -0.000001 0.000001 -0.000006 59.344071 -3.007330 1.216934 -0.000002 0.000012 -3.011519 -5.000224 -7.998945 0.000133 8.016238 74.481779 -6.823158 -66.307893 106.758917 51.432369 -0.000001 -0.000000 0.000002 1.669750 9.157516 0.524437 -0.000001 -0.000018 3.001750 -5.000221 7.999648 -0.000061 2.153977 176.399539 -2.574370 179.999991 -0.000005 -0.991998 175.259020 -2.731641 -0.382469 -0.000004 -0.000000 0.038836 69.007676 6.841556 2.258588 25.456964 -7.355614 -0.000001 0.239297 176.953017 2.073161 -0.000005 -0.000004 -1.065280 -7.695458 1.887102 0.344011 -0.000000 -0.000003 -0.131526 70.321135 -6.833307 -2.190926 25.456860 7.355620 0.000003 
52.050598 -10.485817 93.590599 -2.212745 1.876321 -0.559786 -2.159894 0.374645 -0.020186 -0.316904 0.750861 -0.030395 1.328223 0.750246 -0.039390 11.417946 -17.614762 -2.360788 -1.810805 -0.939399 -1.298869 -16.295660 -20.773464 -18.398050 -148.627553 -181.692430 -96.580186 -0.000001 0.000002 -0.000006 59.029623 -2.971485 1.177800 0.000004 0.000013 -3.011511 -5.000227 -7.998944 0.000133 8.013615 74.477120 -6.821038 -66.273141 106.746561 51.399315 -0.000002 0.000000 0.000002 1.673911 9.161305 0.523792 -0.000000 -0.000018 3.001740 -5.000221 7.999648 -0.000062 2.151201 176.395537 -2.578135 179.999991 -0.000005 -0.991998 175.272995 -2.731696 -0.381803 -0.000004 -0.000001 0.038849 69.003666 6.841535 2.258632 25.456971 -7.355615 -0.000001 0.226802 176.948031 2.072316 -0.000005 -0.000004 -1.065330 -7.697749 1.886964 0.343914 0.000000 -0.000003 -0.131532 70.323689 -6.833322 -2.190471 25.456858 7.355620 0.000002 
52.051601 -10.486216 93.595192 -2.201520 1.882301 -0.554155 -2.162937 0.373295 -0.019309 -0.322981 0.747790 -0.028557 1.322143 0.747244 -0.037514 11.394472 -17.601075 -2.375143 -1.788723 -0.947287 -1.309602 -16.311533 -20.776968 -18.422545 -148.632389 -181.616356 -96.541445 -0.000000 0.000002 -0.000006 58.714150 -2.934865 1.138544 -0.000001 0.000011 -3.011493 -5.000225 -7.998941 0.000133 8.010995 74.472988 -6.818842 -66.244010 106.733140 51.370573 -0.000002 0.000000 0.000001 1.676689 9.164411 0.523290 0.000000 -0.000018 3.001730 -5.000222 7.999649 -0.000061 2.148542 176.391534 -2.581648 179.999991 -0.000005 -0.991998 175.286614 -2.731750 -0.381153 -0.000004 -0.000000 0.038862 68.999671 6.841588 2.258590 25.456965 -7.355616 -0.000000 0.214914 176.944014 2.071563 -0.000005 -0.000004 -1.065370 -7.699581 1.886856 0.343844 0.000000 -0.000003 -0.131547 70.326244 -6.833339 -2.190117 25.456858 7.355620 0.000003 
52.072800 -10.483617 93.590691 -2.190821 1.888010 -0.548910 -2.166014 0.372158 -0.018671 -0.329150 0.745136 -0.027139 1.315981 0.744669 -0.036063 11.375086 -17.590486 -2.387972 -1.768256 -0.952441 -1.319542 -16.325354 -20.782319 -18.443859 -148.637484 -181.539366 -96.500751 -0.000000 0.000002 -0.000005 58.398049 -2.897465 1.099193 -0.000001 0.000013 -3.011471 -5.000222 -7.998940 0.000134 8.008461 74.469553 -6.816621 -66.222284 106.718625 51.347665 -0.000003 0.000000 0.000001 1.677997 9.166866 0.522939 -0.000000 -0.000019 3.001711 -5.000221 7.999650 -0.000061 2.146047 176.387532 -2.584849 179.999991 -0.000005 -0.991998 175.299783 -2.731802 -0.380526 -0.000005 -0.000001 0.038875 68.995982 6.841584 2.258516 25.456967 -7.355615 -0.000001 0.203834 176.940026 2.071000 -0.000004 -0.000004 -1.065420 -7.700840 1.886712 0.343799 0.000000 -0.000003 -0.131570 70.329119 -6.833363 -2.189745 25.456854 7.355622 0.000003 
